<?xml version="1.0" encoding="UTF-8"?>
<svg xmlns="http://www.w3.org/2000/svg" xmlns:xlink="http://www.w3.org/1999/xlink" width="1579.2" height="362.4" viewBox="170.4 358.8 1579.2 362.4">
<path fill-rule="nonzero" fill="rgb(0%, 0%, 0%)" fill-opacity="1" d="M 469.847656 535.136719 C 478.273438 535.136719 485.574219 532.113281 491.539062 526.144531 C 497.507812 520.175781 500.53125 512.777344 500.53125 504.148438 C 500.53125 495.503906 497.496094 488.144531 491.507812 482.269531 C 485.542969 476.425781 478.253906 473.460938 469.847656 473.460938 C 461.234375 473.460938 453.84375 476.425781 447.878906 482.273438 C 441.890625 488.144531 438.855469 495.503906 438.855469 504.148438 C 438.855469 512.777344 441.882812 520.175781 447.847656 526.144531 C 453.8125 532.113281 461.214844 535.136719 469.847656 535.136719 "/>
<path fill-rule="nonzero" fill="rgb(0%, 0%, 0%)" fill-opacity="1" d="M 442.503906 711.042969 L 497.792969 711.042969 L 497.792969 550.457031 L 442.503906 550.457031 Z M 442.503906 711.042969 "/>
<path fill-rule="nonzero" fill="rgb(0%, 0%, 0%)" fill-opacity="1" d="M 579.574219 623.445312 C 579.574219 614.984375 581.867188 608.53125 586.585938 603.722656 C 591.285156 598.9375 597.570312 596.613281 605.796875 596.613281 C 612.671875 596.613281 617.988281 598.960938 622.054688 603.789062 C 626.246094 608.765625 628.371094 615.582031 628.371094 624.054688 L 628.371094 711.042969 L 683.65625 711.042969 L 683.65625 612.792969 C 683.65625 591.929688 678.21875 575.363281 667.496094 563.550781 C 656.667969 551.628906 641.441406 545.585938 622.230469 545.585938 C 611.746094 545.585938 602.003906 547.550781 593.285156 551.425781 C 587.457031 554.019531 582.40625 557.316406 578.1875 561.277344 L 576.101562 550.457031 L 524.289062 550.457031 L 524.289062 711.042969 L 579.574219 711.042969 Z M 579.574219 623.445312 "/>
<path fill-rule="nonzero" fill="rgb(0%, 0%, 0%)" fill-opacity="1" d="M 764.445312 647.679688 C 761.832031 642.636719 760.503906 636.632812 760.503906 629.835938 C 760.503906 623.042969 761.832031 617.039062 764.449219 611.992188 C 767.039062 606.980469 770.652344 603.152344 775.480469 600.285156 C 780.28125 597.445312 786.011719 596.003906 792.511719 596.003906 C 799.042969 596.003906 804.847656 597.410156 809.765625 600.179688 C 814.695312 602.960938 818.449219 606.761719 821.238281 611.789062 C 824.019531 616.816406 825.429688 622.890625 825.429688 629.835938 C 825.429688 636.59375 824.011719 642.625 821.222656 647.757812 C 818.433594 652.882812 814.6875 656.722656 809.769531 659.492188 C 804.855469 662.261719 799.046875 663.667969 792.511719 663.667969 C 786.003906 663.667969 780.277344 662.230469 775.480469 659.386719 C 770.648438 656.523438 767.039062 652.699219 764.445312 647.679688 M 812.789062 708.023438 C 818.53125 705.183594 823.386719 701.792969 827.320312 697.882812 L 828.964844 711.042969 L 881.019531 711.042969 L 881.019531 473.15625 L 825.730469 473.15625 L 825.730469 558.648438 C 821.964844 555.71875 817.558594 553.191406 812.550781 551.089844 C 803.847656 547.4375 794.339844 545.585938 784.292969 545.585938 C 768.164062 545.585938 753.960938 549.277344 742.074219 556.554688 C 730.179688 563.84375 720.898438 574.097656 714.484375 587.035156 C 708.132812 599.839844 704.914062 614.855469 704.914062 631.664062 C 704.914062 648.285156 708.085938 663 714.34375 675.402344 C 720.660156 687.9375 729.640625 697.777344 741.035156 704.65625 C 752.40625 711.519531 765.933594 715 781.25 715 C 792.800781 715 803.414062 712.652344 812.789062 708.023438 "/>
<path fill-rule="nonzero" fill="rgb(0%, 0%, 0%)" fill-opacity="1" d="M 1637.460938 477.820312 C 1657.210938 478.589844 1675.214844 485.960938 1688.808594 497.773438 C 1694.609375 503.304688 1702.460938 506.710938 1711.109375 506.710938 C 1728.957031 506.710938 1743.425781 492.242188 1743.429688 474.394531 C 1743.429688 456.546875 1728.960938 442.078125 1711.113281 442.078125 C 1702.464844 442.078125 1694.613281 445.480469 1688.8125 451.015625 C 1675.21875 462.824219 1657.210938 470.199219 1637.460938 470.964844 C 1638.230469 451.214844 1645.605469 433.210938 1657.414062 419.617188 C 1662.949219 413.816406 1666.355469 405.964844 1666.355469 397.316406 C 1666.355469 379.46875 1651.886719 365 1634.039062 365 C 1616.191406 365 1601.71875 379.46875 1601.71875 397.316406 C 1601.71875 405.964844 1605.125 413.816406 1610.65625 419.617188 C 1622.464844 433.210938 1629.839844 451.214844 1630.605469 470.964844 C 1610.851562 470.199219 1592.847656 462.824219 1579.253906 451.011719 C 1573.453125 445.480469 1565.605469 442.078125 1556.957031 442.078125 C 1539.105469 442.078125 1524.636719 456.542969 1524.636719 474.394531 C 1524.636719 492.242188 1539.101562 506.710938 1556.953125 506.710938 C 1565.601562 506.710938 1573.453125 503.304688 1579.253906 497.773438 C 1592.847656 485.960938 1610.851562 478.589844 1630.605469 477.820312 C 1629.835938 497.574219 1622.460938 515.574219 1610.648438 529.171875 C 1605.113281 534.96875 1601.710938 542.820312 1601.710938 551.46875 C 1601.707031 569.316406 1616.175781 583.785156 1634.023438 583.785156 C 1651.875 583.785156 1666.34375 569.316406 1666.34375 551.46875 C 1666.34375 542.820312 1662.941406 534.96875 1657.40625 529.171875 C 1645.597656 515.574219 1638.226562 497.574219 1637.460938 477.820312 "/>
<path fill-rule="nonzero" fill="rgb(0%, 0%, 0%)" fill-opacity="1" d="M 361.113281 472.75 L 295.96875 638.191406 L 231.121094 472.75 L 176.570312 472.75 L 176.570312 711.171875 L 232.355469 711.171875 L 232.355469 642.765625 C 232.355469 630.195312 232.199219 618.796875 231.898438 608.878906 L 270.648438 711.171875 L 321.265625 711.171875 L 360.808594 607.460938 C 360.804688 607.542969 360.800781 607.625 360.796875 607.703125 C 360.59375 613.089844 360.488281 619.957031 360.488281 628.113281 L 360.488281 711.171875 L 416.273438 711.171875 L 416.273438 472.75 Z M 361.113281 472.75 "/>
<path fill-rule="nonzero" fill="rgb(0%, 0%, 0%)" fill-opacity="1" d="M 1062.019531 638.539062 C 1054.925781 651.746094 1044.996094 661.949219 1032.226562 669.152344 C 1019.460938 676.351562 1004.238281 679.953125 986.558594 679.953125 L 942.6875 679.953125 L 942.6875 502.511719 L 985.246094 502.511719 C 1003.359375 502.511719 1018.914062 506.113281 1031.898438 513.3125 C 1044.882812 520.515625 1054.925781 530.777344 1062.019531 544.089844 C 1069.109375 557.402344 1072.660156 573.226562 1072.660156 591.558594 C 1072.660156 609.679688 1069.109375 625.335938 1062.019531 638.539062 M 1049.578125 487.941406 C 1031.789062 478.011719 1011.109375 473.046875 987.539062 473.046875 L 910.605469 473.046875 L 910.605469 709.746094 L 988.847656 709.746094 C 1012.199219 709.746094 1032.660156 704.785156 1050.234375 694.851562 C 1067.800781 684.921875 1081.5 671.0625 1091.320312 653.273438 C 1101.140625 635.484375 1106.050781 614.917969 1106.050781 591.558594 C 1106.050781 567.988281 1101.085938 547.3125 1091.15625 529.519531 C 1081.222656 511.734375 1067.367188 497.875 1049.578125 487.941406 "/>
<path fill-rule="nonzero" fill="rgb(0%, 0%, 0%)" fill-opacity="1" d="M 1231.109375 640.667969 C 1231.109375 655.726562 1226.960938 667.675781 1218.667969 676.515625 C 1210.371094 685.355469 1198.914062 689.777344 1184.292969 689.777344 C 1174.253906 689.777344 1166.339844 687.648438 1160.558594 683.390625 C 1154.773438 679.136719 1151.882812 672.75 1151.882812 664.238281 C 1151.882812 656.382812 1154.878906 649.945312 1160.886719 644.925781 C 1166.886719 639.90625 1176.652344 636.738281 1190.1875 635.429688 L 1231.109375 632.15625 Z M 1229.308594 552.109375 C 1219.375 547.417969 1207.753906 545.070312 1194.441406 545.070312 C 1180.691406 545.070312 1168.628906 547.363281 1158.265625 551.945312 C 1147.898438 556.53125 1139.875 562.96875 1134.203125 571.261719 C 1128.523438 579.558594 1125.691406 589.269531 1125.691406 600.398438 L 1152.535156 600.398438 C 1152.535156 590.578125 1156.082031 582.996094 1163.175781 577.644531 C 1170.265625 572.300781 1180.25 569.625 1193.132812 569.625 C 1200.335938 569.625 1206.769531 570.769531 1212.449219 573.0625 C 1218.121094 575.355469 1222.597656 579.175781 1225.871094 584.519531 C 1229.144531 589.871094 1230.78125 597.019531 1230.78125 605.964844 L 1230.78125 610.546875 L 1180.363281 614.476562 C 1161.589844 616.007812 1146.972656 621.1875 1136.496094 630.027344 C 1126.019531 638.867188 1120.78125 650.601562 1120.78125 665.222656 C 1120.78125 679.628906 1125.636719 691.304688 1135.347656 700.253906 C 1145.058594 709.207031 1158.429688 713.675781 1175.453125 713.675781 C 1188.328125 713.675781 1199.84375 711 1209.992188 705.652344 C 1220.144531 700.308594 1227.289062 693.050781 1231.4375 683.882812 L 1234.710938 709.746094 L 1260.902344 709.746094 L 1260.902344 609.238281 C 1260.902344 594.835938 1258.121094 582.882812 1252.550781 573.390625 C 1246.988281 563.894531 1239.238281 556.804688 1229.308594 552.109375 "/>
<path fill-rule="nonzero" fill="rgb(0%, 0%, 0%)" fill-opacity="1" d="M 1362.390625 621.023438 L 1334.234375 614.148438 C 1318.523438 610.21875 1310.664062 602.910156 1310.664062 592.214844 C 1310.664062 585.011719 1313.285156 579.339844 1318.523438 575.191406 C 1323.757812 571.046875 1331.175781 568.96875 1340.78125 568.96875 C 1350.164062 568.96875 1357.480469 571.261719 1362.71875 575.84375 C 1367.957031 580.429688 1370.683594 586.867188 1370.902344 595.160156 L 1400.367188 595.160156 C 1400.148438 584.90625 1397.582031 576.066406 1392.675781 568.644531 C 1387.761719 561.226562 1380.996094 555.441406 1372.375 551.292969 C 1363.75 547.148438 1353.550781 545.070312 1341.765625 545.070312 C 1329.980469 545.070312 1319.554688 547.035156 1310.5 550.964844 C 1301.441406 554.894531 1294.34375 560.457031 1289.21875 567.660156 C 1284.089844 574.863281 1281.527344 583.375 1281.527344 593.195312 C 1281.527344 604.984375 1284.964844 614.476562 1291.839844 621.679688 C 1298.714844 628.882812 1309.242188 634.234375 1323.429688 637.722656 L 1351.585938 644.269531 C 1359.878906 646.453125 1365.609375 649.292969 1368.777344 652.78125 C 1371.9375 656.273438 1373.523438 660.640625 1373.523438 665.875 C 1373.523438 673.078125 1370.574219 678.808594 1364.683594 683.066406 C 1358.789062 687.320312 1350.382812 689.449219 1339.472656 689.449219 C 1329.433594 689.449219 1321.464844 687.105469 1315.574219 682.410156 C 1309.679688 677.71875 1306.734375 671.335938 1306.734375 663.257812 L 1277.269531 663.257812 C 1277.269531 678.535156 1282.835938 690.757812 1293.964844 699.925781 C 1305.097656 709.089844 1320.046875 713.675781 1338.820312 713.675781 C 1351.695312 713.675781 1362.882812 711.65625 1372.375 707.617188 C 1381.871094 703.582031 1389.34375 697.796875 1394.800781 690.265625 C 1400.253906 682.738281 1402.988281 673.953125 1402.988281 663.914062 C 1402.988281 652.125 1399.601562 642.796875 1392.835938 635.921875 C 1386.070312 629.046875 1375.921875 624.082031 1362.390625 621.023438 "/>
<path fill-rule="nonzero" fill="rgb(0%, 0%, 0%)" fill-opacity="1" d="M 1554.566406 563.078125 C 1544.523438 551.074219 1529.355469 545.070312 1509.058594 545.070312 C 1496.617188 545.070312 1485.703125 547.746094 1476.320312 553.09375 C 1466.933594 558.441406 1459.730469 565.480469 1454.710938 574.210938 L 1454.710938 473.15625 L 1423.9375 473.15625 L 1423.9375 709.417969 L 1454.710938 709.417969 L 1454.710938 622.335938 C 1454.710938 613.167969 1456.457031 604.875 1459.949219 597.453125 C 1463.4375 590.035156 1468.625 584.140625 1475.5 579.773438 C 1482.375 575.410156 1490.722656 573.226562 1500.546875 573.226562 C 1508.183594 573.226562 1514.894531 574.757812 1520.679688 577.808594 C 1526.460938 580.867188 1530.9375 585.722656 1534.101562 592.378906 C 1537.265625 599.039062 1538.851562 607.820312 1538.851562 618.734375 L 1538.851562 709.746094 L 1569.625 709.746094 L 1569.625 611.859375 C 1569.625 591.34375 1564.601562 575.082031 1554.566406 563.078125 "/>
</svg>
